<?xml version="1.0" standalone="no"?><!DOCTYPE svg PUBLIC "-//W3C//DTD SVG 1.1//EN" "http://www.w3.org/Graphics/SVG/1.1/DTD/svg11.dtd"><svg class="icon" width="200px" height="200.00px" viewBox="0 0 1024 1024" version="1.1" xmlns="http://www.w3.org/2000/svg"><path d="M960 128H512V64a64 64 0 0 0-64-64H64a64 64 0 0 0-64 64v256a64 64 0 0 1 64-64h896a64 64 0 0 1 64 64V192a64 64 0 0 0-64-64z" fill="#434854" /><path d="M512 800a288 288 0 0 1 288-288 287.296 287.296 0 0 1 224 107.168V320a64 64 0 0 0-64-64H64a64 64 0 0 0-64 64v640a64 64 0 0 0 64 64h555.168A287.296 287.296 0 0 1 512 800z" fill="#EDD87E" /><path d="M960 224H64a64 64 0 0 0-64 64v32a64 64 0 0 1 64-64h896a64 64 0 0 1 64 64V288a64 64 0 0 0-64-64z"  /><path d="M128 192h768v64H128z" fill="#EAEAEA" /><path d="M800 800m-224 0a224 224 0 1 0 448 0 224 224 0 1 0-448 0Z" fill="#3AAD73" /><path d="M896 767.968h-64v-64a32 32 0 1 0-64 0v64h-64a32 32 0 1 0 0 64h64v64a32 32 0 1 0 64 0v-64h64a32 32 0 1 0 0-64z" fill="#FFFFFF" /></svg>