<?xml version="1.0" encoding="utf-8"?>
<!-- Generator: Adobe Illustrator 26.0.1, SVG Export Plug-In . SVG Version: 6.00 Build 0)  -->
<svg version="1.1" id="图层_1" xmlns="http://www.w3.org/2000/svg" xmlns:xlink="http://www.w3.org/1999/xlink" x="0px" y="0px"
	 viewBox="0 0 200 200" style="enable-background:new 0 0 200 200;" xml:space="preserve">
<style type="text/css">
	.st0{fill:#B48400;stroke:#B4B200;stroke-miterlimit:10;}
	.st1{stroke:#000000;stroke-miterlimit:10;}
	.st2{fill:none;stroke:#B4B200;stroke-width:3;stroke-linecap:round;stroke-linejoin:round;stroke-miterlimit:10;}
	.st3{fill:none;stroke:#B4B200;stroke-width:3;stroke-linecap:round;stroke-miterlimit:10;}
	.st4{fill:#B48400;}
	.st5{font-family:'Bauhaus93';}
	.st6{font-size:45.2978px;}
	.st7{fill:none;stroke:#B4B200;stroke-miterlimit:10;}
</style>
<g>
	<path class="st0" d="M190.1,104.1c-5.8-19.4-15.2-40.2-27.6-57.6c5.1-7.7,4.4-18.3-2.1-25.2c-6.6-6.9-17.2-7.6-24.5-1.9
		c-10.6-7.5-22.6-11.9-35.6-11.9c-13.9,0-27.4,5.2-40,14.9l-1.1-1.2c-7.3-7.7-19.3-7.7-26.6,0s-7.3,20.2,0,27.8l1.8,1.8
		c-6.9,10.4-13.2,22.4-18.5,35.9c-12.6,31.8-19.6,72.8-5.5,87.6c13.6,14.3,56.3,18.1,89.2,18.1c7.1,0,13.8-0.2,19.5-0.5
		c4.7-0.4,8.2-4.6,7.9-9.5c-0.4-4.7-4.2-8.3-8.7-8.2c-48,2.4-88.4-4.4-95.9-12.4c-5.1-5.4-4.2-34.7,9.2-68.3
		c6.4-16,30.1-68.4,68.6-68.4c14.2,0,27.2,7.6,38.7,19.5L150.3,59c10.1,14.6,18.1,32.5,23.5,50.3c9.2,30.5,7.3,49.3,4.2,52.5
		c-0.6,0.6-2.6,2.3-7.9,4.3c-4.4,1.6-6.8,6.7-5.3,11.3s6.4,7.1,10.8,5.5c0.1,0,0.1-0.1,0.2-0.1c6.5-2.4,11.1-5.2,14.2-8.4
		C201.9,162,197.8,129.9,190.1,104.1z"/>
	<path class="st1" d="M149.3,170.7c-2.6,0.5-5.3,0.9-8.1,1.3c-4.7,0.6-8,5-7.4,9.9c0.5,4.9,4.8,8.3,9.5,7.8c0.1,0,0.1,0,0.2,0
		c3-0.4,5.9-0.8,8.8-1.4c4.6-0.8,7.7-5.5,6.9-10.3C158.2,173.2,153.9,169.9,149.3,170.7L149.3,170.7z M82.6,63.2
		c0-4.7-3.6-8.5-8.1-8.5s-8.1,3.8-8.1,8.5s3.6,8.5,8.1,8.5l0,0C79,71.6,82.6,67.8,82.6,63.2L82.6,63.2z M124.2,54.7
		c-4.5,0-8.1,3.8-8.1,8.5s3.6,8.5,8.1,8.5c4.5,0,8.1-3.8,8.1-8.5l0,0C132.3,58.5,128.6,54.7,124.2,54.7z M87.9,103.2L87.9,103.2
		c5,0,8.9-2.3,11.4-4.6c2.6,2.2,6.4,4.6,11.4,4.6l0,0c8.9,0,12.7-4.6,14.6-6.8c1.5-1.9,1.3-4.6-0.4-6.3c-1.8-1.6-4.4-1.4-5.9,0.4
		s-3.2,3.8-8.2,3.8c-3.2,0-5.6-1.9-6.8-3.3l1.9-3.6c1.2-2.3,0.4-5.4-1.8-6.7c-0.7-0.4-1.5-0.6-2.3-0.6h-4.8c-2.6,0-4.7,2.2-4.7,4.9
		c0,0.8,0.2,1.7,0.6,2.4l1.9,3.6c-1.2,1.4-3.6,3.3-6.8,3.3c-5.1,0-6.8-2-8.2-3.8c-1.6-1.8-4.2-2-6-0.4c-1.8,1.7-1.9,4.4-0.4,6.3
		C75.1,98.7,79,103.2,87.9,103.2L87.9,103.2z"/>
	<g>
		<line class="st2" x1="89.8" y1="82.1" x2="15.3" y2="67.6"/>
		<line class="st2" x1="89.7" y1="86.4" x2="13.3" y2="95.4"/>
		<line class="st2" x1="12.5" y1="81.1" x2="89.5" y2="84.3"/>
	</g>
	<g>
		<line class="st3" x1="108.9" y1="82.1" x2="183.4" y2="67.6"/>
		<line class="st3" x1="109.1" y1="86.4" x2="185.5" y2="95.4"/>
		<line class="st3" x1="186.3" y1="81.1" x2="109.3" y2="84.3"/>
	</g>
	<text transform="matrix(0.9563 0 0 1 25.5557 156.7773)" class="st4 st5 st6">AILURUS</text>
	<text transform="matrix(0.9563 0 0 1 25.5557 156.7773)" class="st7 st5 st6">AILURUS</text>
</g>
</svg>
