<?xml version="1.0" standalone="no"?><!DOCTYPE svg PUBLIC "-//W3C//DTD SVG 1.1//EN" "http://www.w3.org/Graphics/SVG/1.1/DTD/svg11.dtd"><svg class="icon" width="200px" height="200.00px" viewBox="0 0 1024 1024" version="1.1" xmlns="http://www.w3.org/2000/svg"><path d="M512 800a288 288 0 0 1 288-288c33.728 0 65.952 6.08 96 16.736V320L576 0H64a64 64 0 0 0-64 64v896a64 64 0 0 0 64 64h555.168A287.296 287.296 0 0 1 512 800z" fill="#EAEAEA" /><path d="M576 0v256a64 64 0 0 0 64 64h256L576 0z" fill="#434854" /><path d="M640 320l194.368 194.368a290.048 290.048 0 0 1 61.632 14.368V320h-256z"  /><path d="M160 256h256a32 32 0 1 0 0-64H160a32 32 0 1 0 0 64zM160 384h256a32 32 0 1 0 0-64H160a32 32 0 1 0 0 64zM160 512h576a32 32 0 1 0 0-64H160a32 32 0 1 0 0 64zM619.168 576H160a32 32 0 1 0 0 64h400.576a288 288 0 0 1 58.592-64zM528.736 704H160a32 32 0 1 0 0 64h353.888a285.856 285.856 0 0 1 14.848-64zM513.888 832H160a32 32 0 1 0 0 64h368.736a285.856 285.856 0 0 1-14.848-64z"  /><path d="M800 576c-123.68 0-224 100.32-224 224s100.32 224 224 224 224-100.32 224-224-100.32-224-224-224z" fill="#469FCC" /><path d="M889.76 742.208l-32.256-31.744c-8.672-8.672-24-8-31.744-0.256L736 799.968l64 64 89.76-89.76a23.136 23.136 0 0 0 0-32zM704 895.968h64l-64-64z" fill="#FFFFFF" /></svg>