<?xml version="1.0" standalone="no"?><!DOCTYPE svg PUBLIC "-//W3C//DTD SVG 1.1//EN" "http://www.w3.org/Graphics/SVG/1.1/DTD/svg11.dtd"><svg class="icon" width="200px" height="200.00px" viewBox="0 0 1024 1024" version="1.1" xmlns="http://www.w3.org/2000/svg"><path d="M960 128H512V64a64 64 0 0 0-64-64H64a64 64 0 0 0-64 64v256a64 64 0 0 1 64-64h896a64 64 0 0 1 64 64V192a64 64 0 0 0-64-64z" fill="#434854" /><path d="M512 800a288 288 0 0 1 288-288 287.296 287.296 0 0 1 224 107.168V320a64 64 0 0 0-64-64H64a64 64 0 0 0-64 64v640a64 64 0 0 0 64 64h555.168A287.296 287.296 0 0 1 512 800z" fill="#EDD87E" /><path d="M960 224H64a64 64 0 0 0-64 64v32a64 64 0 0 1 64-64h896a64 64 0 0 1 64 64V288a64 64 0 0 0-64-64z"  /><path d="M128 192h768v64H128z" fill="#EAEAEA" /><path d="M800 576c-123.68 0-224 100.32-224 224s100.32 224 224 224 224-100.32 224-224-100.32-224-224-224z" fill="#469FCC" /><path d="M889.76 742.208l-32.256-31.744c-8.672-8.672-24-8-31.744-0.256L736 799.968l64 64 89.76-89.76a23.136 23.136 0 0 0 0-32zM704 895.968h64l-64-64z" fill="#FFFFFF" /></svg>